<?xml version="1.0" encoding="UTF-8"?>
<svg version="1.1" viewBox="0 0 2048 1894" width="214" height="198" xmlns="http://www.w3.org/2000/svg">
<path transform="translate(359,93)" d="m0 0h6l5 5 4 15 12 48 12 37 11 27 13 27 13 23 13 21 14 20 13 17 11 13 9 11 35 35 8 7 8 8 11 9 13 11 17 13 15 12 13 9 23 16 28 17 23 13 22 12 60 32 25 13 23 13 17 10 19 12 15 10 14 10 16 13 13 10 14 12 9 10 7 8 5 4v-55l1-17 2-15 1-21 5-35 9-45 8-30 10-29 10-23 4-8h-35l-12-3-21-9-14-9-10-8-14-14-9-11-4-7 5-1 25 7 11 2 11 1h41l14-3 46-15 24-10 27-10 16-5 13-2h34l45-9h15l18 4 21 7 3 2-1 4-5 4-15 8-12 8-14 12-6 6h-2v2l-17 17-9 11-10 15-12 23-5 15-3 17v23l3 19 6 21 7 20 8 17 10 19 13 28 15 32 11 26 15 43 9 34 4 22 2 20 1 2 1 9v41l-2 20-1 4-1 16-7 47-12 54 9 1 4-4 9-19 15-37 9-27 5-21 4-26v-50l-5-32-6-26-8-24-11-27-14-30-10-19-4-7 1-4 25-13 17-10 21-12 24-13 17-10 28-15 23-13 26-15 29-17 21-13 21-14 17-12 18-13 13-10 14-11 14-12 9-7 13-11 24-24 7-8 11-12 11-14 14-18 14-20 15-25 14-27 9-19 11-29 10-30 10-40 6-27 3-5 7 1 6 4 5 10 15 42 9 31 7 30 5 30 2 20v80l-5 26-6 20-6 17-12 26-11 19-12 17-11 14-10 13-3 5-1 7h11l9-7 14-12 15-12 11-9 15-15 9-11 14-15 9-11 9-10 10-13 11-14 9-9 3-1 2 2-1 11-3 14v13l-4 26-5 23-10 35-10 27-15 33-11 20-15 24-14 20-10 13-11 13-9 10-7 8-8 7-14 11-16 11-12 8-14 9-18 10-7 4-2 5 5 5h11l44-12 30-10 20-8 9-1-3 9-10 17-12 19-10 13-12 13-16 16-8 7-11 10-18 13-23 15-24 14-36 18-31 14-42 16-28 10-54 19-32 13-20 9-25 14-19 12-14 10-14 12-13 11-10 8-9 8-7 8-16 17-8 8-7 8-11 13-20 26-18 27-12 21-14 27-9 19-9 24-9 28-7 27-9 58-1 18v36l2 28 5 42 6 36 10 41-1 3-5-2-8-7-9-10-9-11-13-15-8-10-11-14-13-18-12-20-9-16-11-23-10-26-9-36-1-7v-14l1-10-4-13v-9l3-10v-18l3-16 1-4v-9l-7-1-5 4-8 19-10 28-6 26-5 30-2 24v12l4 40 5 29 7 30 19 70 14 51 8 38 5 31 4 26v13l-6-2-11-13-9-12-14-18-11-14-14-18-14-19-12-17-18-27-13-21-10-18-10-19-9-21-9-24-7-25-4-24v-93l6-42 7-43 3-26 1-5v-54l-6-41-5-19-8-20-9-16-10-14-11-12-12-12-14-11-14-10-21-13-21-12-16-8-20-8-27-10-48-16-43-15-34-13-29-12-25-12-25-13-17-10-25-17-16-12-15-13-15-14-11-11-9-11-10-13-10-15-10-16-7-12v-3l10 3 20 8 38 13 44 11 14 2 3-2-1-5-7-6-16-9-19-12-17-11-19-14-11-9-13-12-7-8-13-15-10-13-13-18-11-17-9-15-14-27-12-28-12-35-7-30-5-27-5-40v-8l1-2 4 1 13 13 9 11 11 13 12 14 13 14 7 8 8 8v2l4 2 19 19 11 9 13 11 14 12 12 9 7 4 7 1-5-10-10-11-8-10-14-18-12-17-11-17-10-18-10-23-10-34-4-21-1-8v-78l3-23 8-40 10-37 14-41 5-12 7-8z" fill="#FA6814"/>
<path transform="translate(1638,722)" d="m0 0 6 5-3 1-10 3-6 1-7 1 2-4z" fill="#FDFDFD"/>
</svg>
